<svg id="Capa_1" enable-background="new 0 0 512 512" height="512" viewBox="0 0 512 512" width="512" xmlns="http://www.w3.org/2000/svg"><g clip-rule="evenodd" fill-rule="evenodd"><path d="m147.191 311.316h217.648 72.235c4.123 0 6.213 3.592 7.48 7.507l61.045 185.7c1.296 3.886-3.386 7.477-7.48 7.477h-484.209c-4.123 0-8.805-3.562-7.509-7.477l61.045-185.7c1.296-3.915 3.386-7.507 7.509-7.507z" fill="#bbec6a"/><path d="m97.041 401.869 121.472.059 16.756-26.465-50.915-14.543-130.719-.059-14.694 44.659 93.143 106.48h54.419l-91.906-105.097c-2.003-2.266-1.296-5.034 2.444-5.034z" fill="#f8f2f0"/><path d="m293.428 401.987 178.512.088-13.457-40.949-130.954-.059-36.81 17.575z" fill="#f8f2f0"/><path d="m269.634 428.453c7.921-8.478 15.902-17.428 23.794-26.466 8.422-9.626 16.785-19.4 24.913-28.821 3.033-4.033 6.096-8.066 9.188-12.099 12.604-16.427 25.443-32.795 37.31-49.752 15.843-22.668 29.919-46.425 39.224-72.743 42.641-120.699-20.908-238.013-148.063-238.572-127.155.559-190.704 117.873-148.063 238.572 9.305 26.318 23.382 50.075 39.254 72.743 11.809 16.898 24.618 33.236 37.163 49.604 3.121 4.063 6.243 8.155 9.305 12.247 8.128 9.391 16.461 19.135 24.854 28.762 7.921 9.067 15.902 18.046 23.853 26.524 13.663 14.602 13.605 14.602 27.268.001zm89.286-264.626c0 56.817-46.086 102.889-102.92 102.889s-102.92-46.072-102.92-102.889 46.086-102.889 102.92-102.889 102.92 46.072 102.92 102.889z" fill="#98bce5"/><path d="m400.912 361.097 57.57.029-13.929-42.304c-1.266-3.915-3.357-7.507-7.48-7.507h-67.288c13.783 15.044 24.413 31.824 31.127 49.782z" fill="#75db3a"/><path d="m409.128 402.046 62.812.029-13.458-40.949-57.57-.029c4.889 13.1 7.716 26.818 8.216 40.949z" fill="#e0d2ce"/><path d="m359.479 512h138.64c4.093 0 8.775-3.592 7.48-7.477l-33.659-102.448-62.812-.029c.059 1.472.088 2.944.088 4.416.001 39.889-18.61 76.57-49.737 105.538z" fill="#75db3a"/><path d="m256 266.716c32.01 0 60.603-14.631 79.479-37.534 14.636-17.781 23.44-40.537 23.44-65.354 0-39.477-22.263-73.774-54.92-91.025-14.341-7.566-30.655-11.864-48-11.864-56.834 0-102.92 46.072-102.92 102.889s46.087 102.888 102.921 102.888z" fill="#f8f2f0"/><path d="m364.839 311.316c15.843-22.668 29.919-46.425 39.224-72.743 39.755-112.457-12.721-221.97-122.915-236.866 10.454 21.726 19.229 46.219 26.002 72.832 30.92 17.722 51.769 51.076 51.769 89.288 0 24.817-8.805 47.573-23.44 65.354-4.299 5.24-9.099 10.039-14.341 14.307-1.737 23.58-4.888 46.278-9.364 67.827-4.947 23.728-11.426 46.013-19.259 66.473-.501 1.236-.972 2.502-1.472 3.739-7.509 18.988-16.196 36.328-25.855 51.636 1.296-1.354 2.768-2.914 4.447-4.71 7.921-8.478 15.902-17.428 23.794-26.466 8.422-9.626 16.785-19.4 24.913-28.821 3.033-4.033 6.096-8.066 9.188-12.099 12.602-16.427 25.441-32.795 37.309-49.751z" fill="#5f99d7"/><path d="m335.479 229.181c14.636-17.781 23.44-40.537 23.44-65.354 0-38.212-20.849-71.566-51.769-89.288 9.894 39.006 15.431 82.517 15.431 128.412 0 13.748-.501 27.29-1.443 40.537 5.242-4.268 10.042-9.067 14.341-14.307z" fill="#e0d2ce"/></g></svg>