<?xml version="1.0" encoding="iso-8859-1"?>
<!-- Generator: Adobe Illustrator 19.0.0, SVG Export Plug-In . SVG Version: 6.00 Build 0)  -->
<svg version="1.1" id="Capa_1" xmlns="http://www.w3.org/2000/svg" xmlns:xlink="http://www.w3.org/1999/xlink" x="0px" y="0px"
	 viewBox="0 0 512 512" style="enable-background:new 0 0 512 512;" xml:space="preserve">
<path style="fill:#00C3FF;" d="M507.44,211.713v233.245c0,13.276-10.762,24.038-24.038,24.038h-56.83l-25.068,38.443
	c-3.967,6.083-12.876,6.082-16.842-0.001l-25.058-38.441H97.006c-13.261,0-24.027-10.766-24.027-24.038V211.713
	c0-13.272,10.766-24.038,24.027-24.038h386.397C496.678,187.674,507.44,198.437,507.44,211.713z"/>
<g>
	<path style="fill:#00AAF0;" d="M457.541,468.997h25.847c13.261,0,24.027-10.766,24.027-24.038V211.714
		c0-13.272-10.766-24.038-24.027-24.038h-25.847c13.261,0,24.027,10.766,24.027,24.038v233.245
		C481.567,458.231,470.801,468.997,457.541,468.997z"/>
	<path style="fill:#00AAF0;" d="M459.251,187.674v69.608c0,24.448-19.819,44.267-44.267,44.267h-45.874l-33.13,50.827
		c-5.324,8.167-17.286,8.168-22.611,0.001l-33.14-50.828H72.979v-89.837c0-13.272,10.766-24.038,24.027-24.038L459.251,187.674
		L459.251,187.674z"/>
</g>
<path style="fill:#F2F2F0;" d="M452.112,354.763c0,4.335-3.518,7.852-7.852,7.852H136.162c-4.335,0-7.852-3.517-7.852-7.852
	s3.517-7.852,7.852-7.852H444.26C448.594,346.91,452.112,350.428,452.112,354.763z"/>
<path style="fill:#E5E5DA;" d="M339.539,346.91l-3.56,5.465c-5.319,8.166-17.286,8.166-22.615,0l-3.56-5.465H339.539z"/>
<g>
	<path style="fill:#F2F2F0;" d="M444.257,398.677H136.163c-4.338,0-7.852-3.515-7.852-7.852c0-4.337,3.515-7.852,7.852-7.852
		h308.095c4.338,0,7.852,3.515,7.852,7.852C452.11,395.161,448.594,398.677,444.257,398.677z"/>
	<path style="fill:#F2F2F0;" d="M444.257,432.037H136.163c-4.338,0-7.852-3.515-7.852-7.852c0-4.337,3.515-7.852,7.852-7.852
		h308.095c4.338,0,7.852,3.515,7.852,7.852C452.11,428.521,448.594,432.037,444.257,432.037z"/>
</g>
<path style="fill:#E5E5DA;" d="M4.56,24.039v233.246c0,13.273,10.76,24.033,24.033,24.033h262.599l25.059,38.443
	c3.966,6.084,12.877,6.084,16.843,0l25.059-38.443h56.838c13.273,0,24.033-10.76,24.033-24.033V24.039
	c0-13.273-10.76-24.033-24.033-24.033H28.594C15.32,0.005,4.56,10.765,4.56,24.039z"/>
<path style="fill:#D1D0BF;" d="M389.15,281.321h25.847c13.261,0,24.027-10.766,24.027-24.038V24.038
	C439.024,10.766,428.258,0,414.998,0H389.15c13.261,0,24.027,10.766,24.027,24.038v233.245
	C413.177,270.555,402.411,281.321,389.15,281.321z"/>
<path style="fill:#FF5F5F;" d="M78.322,66.626h-4.405c-4.338,0-7.852-3.515-7.852-7.852s3.515-7.852,7.852-7.852h4.405
	c4.338,0,7.852,3.515,7.852,7.852S82.66,66.626,78.322,66.626z"/>
<g>
	<path style="fill:#D1D0BF;" d="M382.012,127.62H73.918c-4.338,0-7.852-3.515-7.852-7.852c0-4.337,3.515-7.852,7.852-7.852h308.095
		c4.338,0,7.852,3.515,7.852,7.852C389.865,124.104,386.349,127.62,382.012,127.62z"/>
	<path style="fill:#D1D0BF;" d="M382.012,160.978H73.918c-4.338,0-7.852-3.515-7.852-7.852c0-4.338,3.515-7.852,7.852-7.852h308.095
		c4.338,0,7.852,3.515,7.852,7.852C389.865,157.464,386.349,160.978,382.012,160.978z"/>
	<path style="fill:#D1D0BF;" d="M382.012,197.04H73.918c-4.338,0-7.852-3.515-7.852-7.852s3.515-7.852,7.852-7.852h308.095
		c4.338,0,7.852,3.515,7.852,7.852S386.349,197.04,382.012,197.04z"/>
	<path style="fill:#D1D0BF;" d="M382.012,230.4H73.918c-4.338,0-7.852-3.515-7.852-7.852s3.515-7.852,7.852-7.852h308.095
		c4.338,0,7.852,3.515,7.852,7.852S386.349,230.4,382.012,230.4z"/>
</g>
<path style="fill:#FF5F5F;" d="M196.178,66.626h-86.212c-4.338,0-7.852-3.515-7.852-7.852s3.515-7.852,7.852-7.852h86.212
	c4.338,0,7.852,3.515,7.852,7.852S200.516,66.626,196.178,66.626z"/>
<g>
</g>
<g>
</g>
<g>
</g>
<g>
</g>
<g>
</g>
<g>
</g>
<g>
</g>
<g>
</g>
<g>
</g>
<g>
</g>
<g>
</g>
<g>
</g>
<g>
</g>
<g>
</g>
<g>
</g>
</svg>
