<svg class="thumb" width="1000" height="1000" viewBox="0,0,600,600" xmlns="http://www.w3.org/2000/svg" xmlns:inkscape="http://www.inkscape.org/namespaces/inkscape" xmlns:sodipodi="http://sodipodi.sourceforge.net/DTD/sodipodi-0.dtd" xmlns:xlink="http://www.w3.org/1999/xlink" xmlns:ns1="http://www.inkscape.org/namespaces/inkscape" xmlns:sketch="http://www.bohemiancoding.com/sketch/ns">
  <defs></defs>
  <g transform="matrix(1.5135,0,0,1.5135,13.8999,14.2888)">
    <g transform="matrix(2.0184,0,0,2.0184,0.2796,0.2888)">
      <svg width="187.0337218024264" height="186.77" viewBox="-5.131860901213205,-5,187.0337218024264,186.77" class="thumb">
        <defs>
          <linearGradient x1="0" y1="0.5" x2="1" y2="0.5" id="linearGradientSk8lzeim24">
            <stop offset="0%" stop-color="#3ea3b5"></stop>
            <stop offset="100%" stop-color="#3ea3b5"></stop>
          </linearGradient>
        </defs>
        <g></g>
        <g>
          <circle cx="88.385" cy="88.385" r="88.385" fill="url('#linearGradientSk8lzeim24')" stroke="none" style=""></circle>
        </g>
      </svg>
    </g>
    <g transform="matrix(3.3074,0,0,3.3074,4.6991,99.89)">
      <svg width="54.451268043712616" height="43.63477007138151" viewBox="-1.0002420844626134,19.201229928618485,54.451268043712616,43.63477007138151">
        <defs>
          <linearGradient x1="0" y1="0.5" x2="1" y2="0.5" id="linearGradientSk8lzeim2a">
            <stop offset="0%" stop-color="#ffffff"></stop>
            <stop offset="100%" stop-color="#ffffff"></stop>
          </linearGradient>
        </defs>
        <g></g>
        <g>
          <path d="M34.363,57.836c-1.769,0-3.532-0.208-4.895-0.468c-1.699-0.323-3.93-1.042-6.088-1.736    c-2.542-0.818-5.169-1.664-6.805-1.831c-0.662-0.069-5.602,0.358-8.553,0.614c-1.137,0.098-2.171,0.187-2.943,0.249    c-0.552,0.034-1.033-0.366-1.076-0.917C3.959,53.196,4.37,52.714,4.92,52.67c0.768-0.062,1.798-0.15,2.93-0.248    c4.73-0.407,8.138-0.688,8.928-0.611c1.846,0.188,4.576,1.067,7.215,1.917c2.1,0.677,4.272,1.376,5.849,1.676    c4.121,0.785,9.089,0.56,9.93-1.176c0.108-0.222,0.099-0.316,0.099-0.317c-0.24-0.353-1.642-0.512-4.183-0.516    c-0.291,0.003-0.555,0.003-0.778,0.001c-0.04-0.001-3.97-0.159-4.634-1.767c-0.22-0.532-0.087-1.122,0.357-1.577    c0.822-0.844,2.457-0.915,4.721-1.014c1.518-0.066,3.237-0.141,4.489-0.506c0.432-0.126,0.881-0.249,1.334-0.373    c1.637-0.448,4.684-1.282,4.658-2.061c-0.007-0.228-0.078-0.32-0.145-0.38c-0.27-0.241-0.871-0.284-1.164-0.271    c-0.79,0.152-8.003,1.507-11.271,1.474c-0.771-0.009-2.463-1.004-2.605-2.137c-0.073-0.586,0.216-1.311,1.248-1.587    c0.605-0.162,1.623-0.545,2.801-0.989c2.125-0.801,5.035-1.897,8.06-2.663c2.867-0.726,3.499-1.613,3.638-1.96    c0.14-0.353-0.029-0.636-0.049-0.667c-0.049-0.078-0.105-0.188-0.131-0.277c-0.126-0.423-0.299-0.556-0.451-0.63    c-0.393-0.191-1.494-0.337-4.455,0.828c-2.656,1.045-11.438,4.304-12.964,2.424c-0.324-0.4-0.429-0.888-0.295-1.373    c0.352-1.271,2.386-2.241,5.553-3.394l0.219-0.08c2.12-0.776,6.874-3.962,6.831-4.988c-0.015-0.358-0.189-0.621-0.533-0.801    c-0.641-0.337-1.949-0.376-3.534,0.621c-0.556,0.349-1.312,0.858-2.186,1.446c-2.909,1.957-6.892,4.637-9.456,5.524    c-1.257,0.436-2.634,0.76-3.303-0.134c-0.473-0.63-0.239-1.42,0.137-1.949c0.082-0.119,2.226-3.234,3.629-4.988    c1.105-1.381,1.594-2.582,1.52-2.908c-0.014,0.011-0.146-0.039-0.473-0.039c-0.073,0-0.156,0.002-0.25,0.008    c-4.032,0.269-7.536,7.689-8.545,10.525c-0.049,0.137-0.127,0.262-0.229,0.366c-1.077,1.097-8.963,4.361-12.271,4.902    c-0.544,0.09-1.06-0.28-1.148-0.825c-0.089-0.545,0.28-1.059,0.825-1.148c3.167-0.519,9.815-3.416,11.038-4.235    c0.67-1.775,4.492-11.2,10.197-11.58c1.642-0.107,2.338,0.536,2.63,1.098c0.803,1.537-0.741,3.846-1.732,5.085    c-0.917,1.146-2.206,2.957-2.952,4.022c0.085-0.027,0.176-0.057,0.273-0.091c2.318-0.802,6.335-3.505,8.994-5.294    c0.894-0.602,1.669-1.123,2.238-1.48c1.926-1.21,4.044-1.479,5.528-0.698c0.972,0.511,1.555,1.417,1.6,2.487    c0.136,3.248-8.058,6.919-8.141,6.95l-0.224,0.082c-1.793,0.652-2.856,1.131-3.483,1.475c2.221-0.298,6.898-1.742,9.772-2.873    c2.919-1.149,4.789-1.385,6.062-0.765c0.692,0.337,1.18,0.917,1.451,1.726c0.205,0.36,0.583,1.239,0.192,2.31    c-0.524,1.435-2.218,2.523-5.034,3.236c-2.916,0.738-5.765,1.812-7.845,2.596c-0.84,0.316-1.564,0.589-2.162,0.792    c0.042,0.021,0.079,0.038,0.112,0.049c0.019,0,0.037,0,0.056,0c3.274,0,10.72-1.435,10.796-1.45    c0.27-0.029,1.798-0.143,2.804,0.743c0.514,0.454,0.799,1.082,0.824,1.816c0.079,2.358-3.077,3.222-6.129,4.057    c-0.442,0.121-0.881,0.241-1.303,0.364c-1.483,0.433-3.331,0.513-4.961,0.584c-0.637,0.027-1.446,0.062-2.12,0.133    c0.574,0.127,1.205,0.221,1.619,0.227c0.21,0.002,0.46,0.002,0.735-0.001c2.605-0.011,5.019,0.081,5.896,1.469    c0.28,0.444,0.508,1.192,0.002,2.237C40.553,57.202,37.45,57.836,34.363,57.836z" fill="url('#linearGradientSk8lzeim2a')" stroke="none" style=""></path>
        </g>
      </svg>
    </g>
    <g transform="matrix(-3.0445,1.2923,-1.2923,-3.0445,351.9868,150.5644)">
      <svg width="54.451268043712616" height="43.63477007138151" viewBox="-1.0002420844626134,19.201229928618485,54.451268043712616,43.63477007138151">
        <defs>
          <linearGradient x1="0" y1="0.5" x2="1" y2="0.5" id="linearGradientSk8lzeim2g">
            <stop offset="0%" stop-color="#ffffff"></stop>
            <stop offset="100%" stop-color="#ffffff"></stop>
          </linearGradient>
        </defs>
        <g></g>
        <g>
          <path d="M34.363,57.836c-1.769,0-3.532-0.208-4.895-0.468c-1.699-0.323-3.93-1.042-6.088-1.736    c-2.542-0.818-5.169-1.664-6.805-1.831c-0.662-0.069-5.602,0.358-8.553,0.614c-1.137,0.098-2.171,0.187-2.943,0.249    c-0.552,0.034-1.033-0.366-1.076-0.917C3.959,53.196,4.37,52.714,4.92,52.67c0.768-0.062,1.798-0.15,2.93-0.248    c4.73-0.407,8.138-0.688,8.928-0.611c1.846,0.188,4.576,1.067,7.215,1.917c2.1,0.677,4.272,1.376,5.849,1.676    c4.121,0.785,9.089,0.56,9.93-1.176c0.108-0.222,0.099-0.316,0.099-0.317c-0.24-0.353-1.642-0.512-4.183-0.516    c-0.291,0.003-0.555,0.003-0.778,0.001c-0.04-0.001-3.97-0.159-4.634-1.767c-0.22-0.532-0.087-1.122,0.357-1.577    c0.822-0.844,2.457-0.915,4.721-1.014c1.518-0.066,3.237-0.141,4.489-0.506c0.432-0.126,0.881-0.249,1.334-0.373    c1.637-0.448,4.684-1.282,4.658-2.061c-0.007-0.228-0.078-0.32-0.145-0.38c-0.27-0.241-0.871-0.284-1.164-0.271    c-0.79,0.152-8.003,1.507-11.271,1.474c-0.771-0.009-2.463-1.004-2.605-2.137c-0.073-0.586,0.216-1.311,1.248-1.587    c0.605-0.162,1.623-0.545,2.801-0.989c2.125-0.801,5.035-1.897,8.06-2.663c2.867-0.726,3.499-1.613,3.638-1.96    c0.14-0.353-0.029-0.636-0.049-0.667c-0.049-0.078-0.105-0.188-0.131-0.277c-0.126-0.423-0.299-0.556-0.451-0.63    c-0.393-0.191-1.494-0.337-4.455,0.828c-2.656,1.045-11.438,4.304-12.964,2.424c-0.324-0.4-0.429-0.888-0.295-1.373    c0.352-1.271,2.386-2.241,5.553-3.394l0.219-0.08c2.12-0.776,6.874-3.962,6.831-4.988c-0.015-0.358-0.189-0.621-0.533-0.801    c-0.641-0.337-1.949-0.376-3.534,0.621c-0.556,0.349-1.312,0.858-2.186,1.446c-2.909,1.957-6.892,4.637-9.456,5.524    c-1.257,0.436-2.634,0.76-3.303-0.134c-0.473-0.63-0.239-1.42,0.137-1.949c0.082-0.119,2.226-3.234,3.629-4.988    c1.105-1.381,1.594-2.582,1.52-2.908c-0.014,0.011-0.146-0.039-0.473-0.039c-0.073,0-0.156,0.002-0.25,0.008    c-4.032,0.269-7.536,7.689-8.545,10.525c-0.049,0.137-0.127,0.262-0.229,0.366c-1.077,1.097-8.963,4.361-12.271,4.902    c-0.544,0.09-1.06-0.28-1.148-0.825c-0.089-0.545,0.28-1.059,0.825-1.148c3.167-0.519,9.815-3.416,11.038-4.235    c0.67-1.775,4.492-11.2,10.197-11.58c1.642-0.107,2.338,0.536,2.63,1.098c0.803,1.537-0.741,3.846-1.732,5.085    c-0.917,1.146-2.206,2.957-2.952,4.022c0.085-0.027,0.176-0.057,0.273-0.091c2.318-0.802,6.335-3.505,8.994-5.294    c0.894-0.602,1.669-1.123,2.238-1.48c1.926-1.21,4.044-1.479,5.528-0.698c0.972,0.511,1.555,1.417,1.6,2.487    c0.136,3.248-8.058,6.919-8.141,6.95l-0.224,0.082c-1.793,0.652-2.856,1.131-3.483,1.475c2.221-0.298,6.898-1.742,9.772-2.873    c2.919-1.149,4.789-1.385,6.062-0.765c0.692,0.337,1.18,0.917,1.451,1.726c0.205,0.36,0.583,1.239,0.192,2.31    c-0.524,1.435-2.218,2.523-5.034,3.236c-2.916,0.738-5.765,1.812-7.845,2.596c-0.84,0.316-1.564,0.589-2.162,0.792    c0.042,0.021,0.079,0.038,0.112,0.049c0.019,0,0.037,0,0.056,0c3.274,0,10.72-1.435,10.796-1.45    c0.27-0.029,1.798-0.143,2.804,0.743c0.514,0.454,0.799,1.082,0.824,1.816c0.079,2.358-3.077,3.222-6.129,4.057    c-0.442,0.121-0.881,0.241-1.303,0.364c-1.483,0.433-3.331,0.513-4.961,0.584c-0.637,0.027-1.446,0.062-2.12,0.133    c0.574,0.127,1.205,0.221,1.619,0.227c0.21,0.002,0.46,0.002,0.735-0.001c2.605-0.011,5.019,0.081,5.896,1.469    c0.28,0.444,0.508,1.192,0.002,2.237C40.553,57.202,37.45,57.836,34.363,57.836z" fill="url('#linearGradientSk8lzeim2g')" stroke="none" style=""></path>
        </g>
      </svg>
    </g>
    <g transform="matrix(-1.5527,-2.9203,2.9203,-1.5527,205.1379,388.2321)">
      <svg width="54.451268043712616" height="43.63477007138151" viewBox="-1.0002420844626134,19.201229928618485,54.451268043712616,43.63477007138151">
        <defs>
          <linearGradient x1="0" y1="0.5" x2="1" y2="0.5" id="linearGradientSk8lzeim2m">
            <stop offset="0%" stop-color="#ffffff"></stop>
            <stop offset="100%" stop-color="#ffffff"></stop>
          </linearGradient>
        </defs>
        <g></g>
        <g>
          <path d="M34.363,57.836c-1.769,0-3.532-0.208-4.895-0.468c-1.699-0.323-3.93-1.042-6.088-1.736    c-2.542-0.818-5.169-1.664-6.805-1.831c-0.662-0.069-5.602,0.358-8.553,0.614c-1.137,0.098-2.171,0.187-2.943,0.249    c-0.552,0.034-1.033-0.366-1.076-0.917C3.959,53.196,4.37,52.714,4.92,52.67c0.768-0.062,1.798-0.15,2.93-0.248    c4.73-0.407,8.138-0.688,8.928-0.611c1.846,0.188,4.576,1.067,7.215,1.917c2.1,0.677,4.272,1.376,5.849,1.676    c4.121,0.785,9.089,0.56,9.93-1.176c0.108-0.222,0.099-0.316,0.099-0.317c-0.24-0.353-1.642-0.512-4.183-0.516    c-0.291,0.003-0.555,0.003-0.778,0.001c-0.04-0.001-3.97-0.159-4.634-1.767c-0.22-0.532-0.087-1.122,0.357-1.577    c0.822-0.844,2.457-0.915,4.721-1.014c1.518-0.066,3.237-0.141,4.489-0.506c0.432-0.126,0.881-0.249,1.334-0.373    c1.637-0.448,4.684-1.282,4.658-2.061c-0.007-0.228-0.078-0.32-0.145-0.38c-0.27-0.241-0.871-0.284-1.164-0.271    c-0.79,0.152-8.003,1.507-11.271,1.474c-0.771-0.009-2.463-1.004-2.605-2.137c-0.073-0.586,0.216-1.311,1.248-1.587    c0.605-0.162,1.623-0.545,2.801-0.989c2.125-0.801,5.035-1.897,8.06-2.663c2.867-0.726,3.499-1.613,3.638-1.96    c0.14-0.353-0.029-0.636-0.049-0.667c-0.049-0.078-0.105-0.188-0.131-0.277c-0.126-0.423-0.299-0.556-0.451-0.63    c-0.393-0.191-1.494-0.337-4.455,0.828c-2.656,1.045-11.438,4.304-12.964,2.424c-0.324-0.4-0.429-0.888-0.295-1.373    c0.352-1.271,2.386-2.241,5.553-3.394l0.219-0.08c2.12-0.776,6.874-3.962,6.831-4.988c-0.015-0.358-0.189-0.621-0.533-0.801    c-0.641-0.337-1.949-0.376-3.534,0.621c-0.556,0.349-1.312,0.858-2.186,1.446c-2.909,1.957-6.892,4.637-9.456,5.524    c-1.257,0.436-2.634,0.76-3.303-0.134c-0.473-0.63-0.239-1.42,0.137-1.949c0.082-0.119,2.226-3.234,3.629-4.988    c1.105-1.381,1.594-2.582,1.52-2.908c-0.014,0.011-0.146-0.039-0.473-0.039c-0.073,0-0.156,0.002-0.25,0.008    c-4.032,0.269-7.536,7.689-8.545,10.525c-0.049,0.137-0.127,0.262-0.229,0.366c-1.077,1.097-8.963,4.361-12.271,4.902    c-0.544,0.09-1.06-0.28-1.148-0.825c-0.089-0.545,0.28-1.059,0.825-1.148c3.167-0.519,9.815-3.416,11.038-4.235    c0.67-1.775,4.492-11.2,10.197-11.58c1.642-0.107,2.338,0.536,2.63,1.098c0.803,1.537-0.741,3.846-1.732,5.085    c-0.917,1.146-2.206,2.957-2.952,4.022c0.085-0.027,0.176-0.057,0.273-0.091c2.318-0.802,6.335-3.505,8.994-5.294    c0.894-0.602,1.669-1.123,2.238-1.48c1.926-1.21,4.044-1.479,5.528-0.698c0.972,0.511,1.555,1.417,1.6,2.487    c0.136,3.248-8.058,6.919-8.141,6.95l-0.224,0.082c-1.793,0.652-2.856,1.131-3.483,1.475c2.221-0.298,6.898-1.742,9.772-2.873    c2.919-1.149,4.789-1.385,6.062-0.765c0.692,0.337,1.18,0.917,1.451,1.726c0.205,0.36,0.583,1.239,0.192,2.31    c-0.524,1.435-2.218,2.523-5.034,3.236c-2.916,0.738-5.765,1.812-7.845,2.596c-0.84,0.316-1.564,0.589-2.162,0.792    c0.042,0.021,0.079,0.038,0.112,0.049c0.019,0,0.037,0,0.056,0c3.274,0,10.72-1.435,10.796-1.45    c0.27-0.029,1.798-0.143,2.804,0.743c0.514,0.454,0.799,1.082,0.824,1.816c0.079,2.358-3.077,3.222-6.129,4.057    c-0.442,0.121-0.881,0.241-1.303,0.364c-1.483,0.433-3.331,0.513-4.961,0.584c-0.637,0.027-1.446,0.062-2.12,0.133    c0.574,0.127,1.205,0.221,1.619,0.227c0.21,0.002,0.46,0.002,0.735-0.001c2.605-0.011,5.019,0.081,5.896,1.469    c0.28,0.444,0.508,1.192,0.002,2.237C40.553,57.202,37.45,57.836,34.363,57.836z" fill="url('#linearGradientSk8lzeim2m')" stroke="none" style=""></path>
        </g>
      </svg>
    </g>
  </g>
</svg>